<?xml version="1.0" encoding="UTF-8"?>
<svg width="55px" height="54px" viewBox="0 0 55 54" version="1.1" xmlns="http://www.w3.org/2000/svg" xmlns:xlink="http://www.w3.org/1999/xlink">
    <!-- Generator: Sketch 62 (91390) - https://sketch.com -->
    <title>cb-logo-responsive (1)</title>
    <desc>Created with Sketch.</desc>
    <g id="Page-1" stroke="none" stroke-width="1" fill="none" fill-rule="evenodd">
        <g id="cb-logo-responsive-(1)" fill="#484539" fill-rule="nonzero">
            <path d="M41,24.3 C39,24.3 37.5,25.9 37.5,27.8 C37.5,29.8 39.1,31.3 41,31.3 C43,31.3 44.5,29.7 44.5,27.8 C44.6,25.8 43,24.3 41,24.3 Z M42.8,29.7 C42.1,29.7 41.6,28.8 41.6,27.7 C41.6,26.6 42.1,25.7 42.8,25.7 C43.5,25.7 44,26.6 44,27.7 C44,28.8 43.5,29.7 42.8,29.7 Z M53.5,12.4 C52.5,11.5 50.9,10.8 48.9,10.4 C50.6,9.9 51.8,9.2 52.6,8.4 C53.4,7.5 53.8,6.5 53.8,5.3 C53.8,3.8 53.2,2.6 52,1.6 C50.9,0.5 49.2,0 47,0 L35.6,0 L35.6,1.1 L37.5,1.1 C37.7,1.1 37.9,1.1 38,1.2 L36,5.4 C33.6,3.6 31.3,2.3 29.2,1.5 C27.1,0.7 25,0.4 22.8,0.4 C18.8,0.4 15.1,1.5 11.7,3.8 C8.3,5.9 5.5,9.3 3.3,13.7 C1.1,18.2 0,23 0,28.1 C0,32.9 1.1,37.3 3.2,41.3 C5.3,45.3 8.2,48.4 11.7,50.5 C15.2,52.6 19.2,53.7 23.4,53.7 C28.7,53.7 33,52.1 36.5,48.8 C40,45.5 42,40.9 42.8,34.8 L40.3,34.8 C39.4,40.2 37.6,44.2 34.8,46.8 C32,49.5 28.5,50.8 24.4,50.8 C19.7,50.8 16,49.1 13.3,45.7 C10.2,41.7 8.7,35.8 8.7,28.2 C8.7,19.1 10,12.6 12.7,8.8 C15.4,4.9 18.9,3 23.2,3 C27.2,3 30.6,4.7 33.4,8.1 C35.6,10.7 37.4,14.6 38.9,19.9 C38.8,20 38.8,20.2 38.6,20.3 C38.4,20.5 38,20.6 37.4,20.6 L35.6,20.6 L35.6,21.7 L46.6,21.7 C48.3,21.7 49.9,21.4 51.2,20.8 C52.6,20.2 53.5,19.5 54.1,18.7 C54.7,17.9 55,16.9 55,15.8 C55.1,14.5 54.5,13.3 53.5,12.4 Z M42.1,2.2 C42.1,1.8 42.2,1.5 42.5,1.3 C42.8,1.1 43.5,1 44.7,1 C46.4,1 47.6,1.1 48.2,1.4 C48.9,1.7 49.4,2.1 49.8,2.7 C50.2,3.3 50.3,4.1 50.3,5.2 C50.3,6.9 49.9,8.1 49.2,8.9 C48.4,9.6 47.4,10 46.2,10 L42.1,10 L42.1,2.2 Z M50.2,19.5 C49.4,20.3 48.1,20.7 46.3,20.7 L43.7,20.7 C43.1,20.7 42.7,20.6 42.5,20.4 C42.3,20.2 42.2,19.9 42.2,19.5 L42.2,11.1 L46.7,11.1 C48.2,11.1 49.4,11.5 50.3,12.4 C51.2,13.3 51.6,14.4 51.6,15.9 C51.5,17.5 51.1,18.7 50.2,19.5 Z" id="Shape"></path>
        </g>
    </g>
</svg>